<svg width="40" height="40" viewBox="0 0 40 40" fill="none" xmlns="http://www.w3.org/2000/svg">
<mask id="mask0_234_2200" style="mask-type:alpha" maskUnits="userSpaceOnUse" x="-1" y="-1" width="40" height="40">
<rect x="-1" y="-1" width="40" height="40" fill="#D9D9D9"/>
</mask>
<g mask="url(#mask0_234_2200)">
<path d="M4.43583 31.3327C3.75306 31.3327 3.17639 31.0974 2.70583 30.6269C2.23528 30.1563 2 29.5796 2 28.8968V12.1019C2 11.4191 2.23528 10.8424 2.70583 10.3718C3.17639 9.90129 3.75306 9.66602 4.43583 9.66602H12V7.10185C12 6.41907 12.2353 5.8424 12.7058 5.37185C13.1764 4.90129 13.7531 4.66602 14.4358 4.66602H19.5642C20.2469 4.66602 20.8236 4.90129 21.2942 5.37185C21.7647 5.8424 22 6.41907 22 7.10185V9.66602H29.5642C30.2469 9.66602 30.8236 9.90129 31.2942 10.3718C31.7647 10.8424 32 11.4191 32 12.1019V28.8968C32 29.5796 31.7647 30.1563 31.2942 30.6269C30.8236 31.0974 30.2469 31.3327 29.5642 31.3327H4.43583ZM4.43583 29.9223H29.5642C29.8206 29.9223 30.0556 29.8155 30.2692 29.6019C30.4828 29.3882 30.5896 29.1532 30.5896 28.8968V12.1019C30.5896 11.8455 30.4828 11.6105 30.2692 11.3968C30.0556 11.1832 29.8206 11.0764 29.5642 11.0764H4.43583C4.17944 11.0764 3.94444 11.1832 3.73083 11.3968C3.51722 11.6105 3.41042 11.8455 3.41042 12.1019V28.8968C3.41042 29.1532 3.51722 29.3882 3.73083 29.6019C3.94444 29.8155 4.17944 29.9223 4.43583 29.9223ZM13.4104 9.66602H20.5896V7.10185C20.5896 6.84546 20.4828 6.61046 20.2692 6.39685C20.0556 6.18324 19.8206 6.07643 19.5642 6.07643H14.4358C14.1794 6.07643 13.9444 6.18324 13.7308 6.39685C13.5172 6.61046 13.4104 6.84546 13.4104 7.10185V9.66602Z" fill="#1C1B1F"/>
</g>
<rect x="20" y="16" width="20" height="20" rx="10" fill="white"/>
<mask id="mask1_234_2200" style="mask-type:alpha" maskUnits="userSpaceOnUse" x="20" y="14" width="20" height="20">
<rect x="20" y="14" width="20" height="20" fill="#D9D9D9"/>
</mask>
<g mask="url(#mask1_234_2200)">
<path d="M22.75 29.5C22.5375 29.5 22.3594 29.4285 22.2156 29.2856C22.0719 29.1427 22 28.9656 22 28.7544C22 28.5431 22.0719 28.3646 22.2156 28.2188C22.3594 28.0729 22.5375 28 22.75 28H29.25C29.4625 28 29.6406 28.0715 29.7844 28.2144C29.9281 28.3573 30 28.5344 30 28.7456C30 28.9569 29.9281 29.1354 29.7844 29.2812C29.6406 29.4271 29.4625 29.5 29.25 29.5H22.75ZM22.75 25.75C22.5375 25.75 22.3594 25.6785 22.2156 25.5356C22.0719 25.3927 22 25.2156 22 25.0044C22 24.7931 22.0719 24.6146 22.2156 24.4688C22.3594 24.3229 22.5375 24.25 22.75 24.25H25.25C25.4625 24.25 25.6406 24.3215 25.7844 24.4644C25.9281 24.6073 26 24.7844 26 24.9956C26 25.2069 25.9281 25.3854 25.7844 25.5312C25.6406 25.6771 25.4625 25.75 25.25 25.75H22.75ZM22.75 22C22.5375 22 22.3594 21.9285 22.2156 21.7856C22.0719 21.6427 22 21.4656 22 21.2544C22 21.0431 22.0719 20.8646 22.2156 20.7188C22.3594 20.5729 22.5375 20.5 22.75 20.5H25.25C25.4625 20.5 25.6406 20.5715 25.7844 20.7144C25.9281 20.8573 26 21.0344 26 21.2456C26 21.4569 25.9281 21.6354 25.7844 21.7812C25.6406 21.9271 25.4625 22 25.25 22H22.75ZM31.5 27C30.3933 27 29.45 26.6095 28.67 25.8285C27.89 25.0477 27.5 24.1033 27.5 22.9952C27.5 21.8873 27.8905 20.9444 28.6715 20.1667C29.4523 19.3889 30.3967 19 31.5048 19C32.6127 19 33.5556 19.39 34.3333 20.17C35.1111 20.95 35.5 21.8933 35.5 23C35.5 23.4167 35.441 23.816 35.3229 24.1979C35.2049 24.5799 35.0347 24.9306 34.8125 25.25L37.4758 27.9133C37.6308 28.0683 37.7083 28.2431 37.7083 28.4375C37.7083 28.6319 37.6319 28.8056 37.4792 28.9583C37.3264 29.1111 37.1493 29.1875 36.9479 29.1875C36.7465 29.1875 36.5683 29.1106 36.4133 28.9567L33.75 26.3125C33.4306 26.5347 33.0799 26.7049 32.6979 26.8229C32.316 26.941 31.9167 27 31.5 27ZM31.5 25.5C32.1944 25.5 32.7847 25.2569 33.2708 24.7708C33.7569 24.2847 34 23.6944 34 23C34 22.3056 33.7569 21.7153 33.2708 21.2292C32.7847 20.7431 32.1944 20.5 31.5 20.5C30.8056 20.5 30.2153 20.7431 29.7292 21.2292C29.2431 21.7153 29 22.3056 29 23C29 23.6944 29.2431 24.2847 29.7292 24.7708C30.2153 25.2569 30.8056 25.5 31.5 25.5Z" fill="#1C1B1F"/>
</g>
</svg>
