<svg width="40" height="41" viewBox="0 0 40 41" fill="none" xmlns="http://www.w3.org/2000/svg">
<mask id="mask0_234_2233" style="mask-type:alpha" maskUnits="userSpaceOnUse" x="0" y="0" width="40" height="40">
<rect width="40" height="40" fill="#D9D9D9"/>
</mask>
<g mask="url(#mask0_234_2233)">
<path d="M29.9967 33.9564C30.2253 33.9564 30.4169 33.8838 30.5717 33.7385C30.7261 33.5932 30.8033 33.4053 30.8033 33.1748C30.8033 32.9439 30.7251 32.7523 30.5688 32.5998C30.4124 32.4473 30.2264 32.371 30.0108 32.371C29.7728 32.371 29.5776 32.4473 29.4254 32.5998C29.2729 32.7523 29.1967 32.9439 29.1967 33.1748C29.1967 33.4053 29.2729 33.5932 29.4254 33.7385C29.5776 33.8838 29.7681 33.9564 29.9967 33.9564ZM30 30.8264C30.1794 30.8264 30.3244 30.7666 30.435 30.6468C30.5453 30.5271 30.6004 30.3742 30.6004 30.1881V26.6527C30.6004 26.4663 30.5456 26.318 30.4358 26.2077C30.3261 26.0974 30.1787 26.0423 29.9937 26.0423C29.814 26.0423 29.669 26.098 29.5588 26.2094C29.4485 26.3207 29.3933 26.4703 29.3933 26.6581V30.226C29.3933 30.391 29.4481 30.5324 29.5575 30.6502C29.6672 30.7677 29.8147 30.8264 30 30.8264ZM6.41042 30.8968V31.9223V13.0764V30.8968ZM7.43583 33.3327C6.75306 33.3327 6.17639 33.0974 5.70583 32.6269C5.23528 32.1563 5 31.5796 5 30.8968V14.1019C5 13.4191 5.23528 12.8424 5.70583 12.3718C6.17639 11.9013 6.75306 11.666 7.43583 11.666H15V9.10185C15 8.42018 15.2353 7.84379 15.7058 7.37268C16.1764 6.90157 16.7531 6.66602 17.4358 6.66602H22.5642C23.2469 6.66602 23.8236 6.90157 24.2942 7.37268C24.7647 7.84379 25 8.42018 25 9.10185V11.666H32.5642C33.2469 11.666 33.8236 11.9013 34.2942 12.3718C34.7647 12.8424 35 13.4191 35 14.1019V20.696C35 20.896 34.9322 21.0566 34.7967 21.1777C34.6611 21.2988 34.4921 21.3594 34.2896 21.3594C34.0874 21.3594 33.9201 21.2921 33.7879 21.1577C33.6557 21.023 33.5896 20.8552 33.5896 20.6543V14.1019C33.5896 13.8027 33.4935 13.557 33.3013 13.3648C33.109 13.1725 32.8633 13.0764 32.5642 13.0764H7.43583C7.13667 13.0764 6.89097 13.1725 6.69875 13.3648C6.50653 13.557 6.41042 13.8027 6.41042 14.1019V30.8968C6.41042 31.196 6.50653 31.4417 6.69875 31.6339C6.89097 31.8262 7.13667 31.9223 7.43583 31.9223H19.7587C19.9596 31.9223 20.1272 31.9902 20.2617 32.126C20.3964 32.2616 20.4638 32.4305 20.4638 32.6327C20.4638 32.8352 20.3964 33.0024 20.2617 33.1343C20.1272 33.2666 19.9596 33.3327 19.7587 33.3327H7.43583ZM16.4104 11.666H23.5896V9.10185C23.5896 8.80268 23.4935 8.55699 23.3013 8.36477C23.109 8.17254 22.8633 8.07643 22.5642 8.07643H17.4358C17.1367 8.07643 16.891 8.17254 16.6987 8.36477C16.5065 8.55699 16.4104 8.80268 16.4104 9.10185V11.666ZM30 36.5785C28.1744 36.5785 26.6215 35.9384 25.3413 34.6581C24.061 33.3778 23.4208 31.8249 23.4208 29.9993C23.4208 28.1738 24.061 26.6209 25.3413 25.3406C26.6215 24.0603 28.1744 23.4202 30 23.4202C31.8256 23.4202 33.3785 24.0603 34.6588 25.3406C35.939 26.6209 36.5792 28.1738 36.5792 29.9993C36.5792 31.8249 35.939 33.3778 34.6588 34.6581C33.3785 35.9384 31.8256 36.5785 30 36.5785Z" fill="#002830"/>
</g>
<rect x="20" y="21" width="20" height="20" rx="10" fill="white"/>
<mask id="mask1_234_2233" style="mask-type:alpha" maskUnits="userSpaceOnUse" x="22" y="23" width="20" height="20">
<rect x="22" y="23" width="20" height="20" fill="#D9D9D9"/>
</mask>
<g mask="url(#mask1_234_2233)">
<path d="M29.802 29.7427C30.175 29.7427 30.493 29.6099 30.7559 29.3443C31.0188 29.0788 31.1503 28.7595 31.1503 28.3866C31.1503 28.0136 31.0175 27.6956 30.7519 27.4327C30.4864 27.1698 30.1671 27.0383 29.7942 27.0383C29.4212 27.0383 29.1032 27.1711 28.8403 27.4367C28.5774 27.7022 28.4459 28.0215 28.4459 28.3944C28.4459 28.7674 28.5787 29.0854 28.8443 29.3483C29.1098 29.6112 29.4291 29.7427 29.802 29.7427ZM29.7994 32.8977C30.3494 32.8977 30.8623 32.7757 31.3381 32.5315C31.8138 32.2874 32.2333 31.9575 32.5963 31.542C32.1707 31.2689 31.7229 31.051 31.253 30.8883C30.7831 30.7255 30.298 30.6441 29.7975 30.6441C29.2971 30.6441 28.8121 30.7255 28.3426 30.8883C27.8731 31.051 27.4255 31.2701 26.9999 31.5456C27.3504 31.9587 27.7672 32.2874 28.2501 32.5315C28.7328 32.7757 29.2493 32.8977 29.7994 32.8977ZM29.7989 35.6021C28.2083 35.6021 26.8715 35.0563 25.7885 33.9646C24.7056 32.873 24.1641 31.5408 24.1641 29.968C24.1641 28.378 24.7056 27.0415 25.7885 25.9585C26.8715 24.8755 28.2049 24.334 29.7887 24.334C31.3725 24.334 32.709 24.8755 33.7983 25.9585C34.8875 27.0415 35.4321 28.3782 35.4321 29.9688C35.4321 30.6336 35.3289 31.2598 35.1223 31.8474C34.9157 32.4349 34.6183 32.9666 34.2302 33.4424L37.2174 36.4295C37.3544 36.5665 37.4228 36.7226 37.4228 36.8979C37.4228 37.0732 37.354 37.2297 37.2163 37.3674C37.0785 37.5051 36.9189 37.574 36.7374 37.574C36.5558 37.574 36.3966 37.5059 36.2596 37.3698L33.2724 34.4001C32.7967 34.7883 32.265 35.0856 31.6774 35.2922C31.0899 35.4988 30.4637 35.6021 29.7989 35.6021Z" fill="#002830"/>
</g>
</svg>
