<svg width="40" height="40" viewBox="0 0 40 40" fill="none" xmlns="http://www.w3.org/2000/svg">
<mask id="mask0_1112_301" style="mask-type:alpha" maskUnits="userSpaceOnUse" x="0" y="0" width="40" height="40">
<rect width="40" height="40" fill="#D9D9D9"/>
</mask>
<g mask="url(#mask0_1112_301)">
<path d="M28.3332 25.9295C27.2648 25.9295 26.3568 25.5555 25.609 24.8075C24.8609 24.0597 24.4869 23.1516 24.4869 22.0833C24.4869 21.015 24.8609 20.1069 25.609 19.3591C26.3568 18.6111 27.2648 18.237 28.3332 18.237C29.4015 18.237 30.3096 18.6111 31.0573 19.3591C31.8054 20.1069 32.1794 21.015 32.1794 22.0833C32.1794 23.1516 31.8054 24.0597 31.0573 24.8075C30.3096 25.5555 29.4015 25.9295 28.3332 25.9295ZM28.3332 24.5191C29.0198 24.5191 29.5975 24.2848 30.0661 23.8162C30.5347 23.3476 30.769 22.77 30.769 22.0833C30.769 21.3966 30.5347 20.819 30.0661 20.3504C29.5975 19.8818 29.0198 19.6475 28.3332 19.6475C27.6465 19.6475 27.0689 19.8818 26.6003 20.3504C26.1316 20.819 25.8973 21.3966 25.8973 22.0833C25.8973 22.77 26.1316 23.3476 26.6003 23.8162C27.0689 24.2848 27.6465 24.5191 28.3332 24.5191ZM20.7048 35.7691C20.3598 35.7691 20.0707 35.6525 19.8373 35.4191C19.6037 35.1855 19.4869 34.8962 19.4869 34.5512V32.0895C19.4869 31.7079 19.578 31.3488 19.7603 31.0125C19.9425 30.6763 20.1976 30.4083 20.5257 30.2083C21.2548 29.7675 21.8858 29.4525 22.4186 29.2633C22.9514 29.0741 23.6397 28.8911 24.4836 28.7141C24.7439 28.6675 25.0014 28.6729 25.2561 28.7304C25.5105 28.7879 25.7161 28.9187 25.8728 29.1229L28.3332 32.3462L30.7586 29.1229C30.9341 28.9132 31.144 28.7809 31.3882 28.7262C31.6326 28.6715 31.8939 28.6693 32.1719 28.7195C33.0236 28.899 33.7068 29.0807 34.2215 29.2645C34.7359 29.4484 35.3725 29.763 36.1311 30.2083C36.4603 30.4069 36.7119 30.6725 36.8861 31.005C37.0603 31.3372 37.158 31.688 37.1794 32.0575V34.5512C37.1794 34.8962 37.0626 35.1855 36.829 35.4191C36.5957 35.6525 36.3065 35.7691 35.9615 35.7691H20.7048ZM20.8619 34.3591H28.0744L24.7798 30.0062C24.0796 30.1926 23.4051 30.42 22.7565 30.6883C22.1082 30.9566 21.4766 31.2627 20.8619 31.6066V34.3591ZM28.6132 34.3591H35.769V31.6066C35.1565 31.2605 34.5236 30.9594 33.8703 30.7033C33.2169 30.4475 32.5472 30.2258 31.8611 30.0383L28.6132 34.3591ZM8.07692 31.9229V8.07704V14.7233V13.8783V31.9229ZM9.11775 33.3333C8.44331 33.3333 7.86623 33.092 7.3865 32.6095C6.9065 32.127 6.6665 31.5563 6.6665 30.8975V9.10246C6.6665 8.44357 6.90775 7.87288 7.39025 7.39038C7.87275 6.90788 8.44345 6.66663 9.10234 6.66663H30.8973C31.5562 6.66663 32.1269 6.90788 32.6094 7.39038C33.0919 7.87288 33.3332 8.44357 33.3332 9.10246V15.8566C33.1309 15.6361 32.9151 15.4327 32.6857 15.2466C32.4565 15.0608 32.2022 14.8875 31.9228 14.7266V9.10246C31.9228 8.80329 31.8266 8.5576 31.6344 8.36538C31.4422 8.17315 31.1965 8.07704 30.8973 8.07704H9.10234C8.80317 8.07704 8.55748 8.17315 8.36525 8.36538C8.17303 8.5576 8.07692 8.80329 8.07692 9.10246V30.8975C8.07692 31.1966 8.17303 31.4423 8.36525 31.6345C8.55748 31.8268 8.80317 31.9229 9.10234 31.9229H15.1044C15.1125 31.9473 15.1184 31.9787 15.1223 32.017C15.1262 32.0554 15.1282 32.0795 15.1282 32.0895V33.3333H9.11775ZM13.2048 14.295H25.6473C25.9551 14.1952 26.2614 14.1222 26.5661 14.0758C26.8711 14.0294 27.1823 13.985 27.4998 13.9425V13.205C27.4998 13.1141 27.4691 13.038 27.4078 12.9766C27.3464 12.9152 27.2703 12.8845 27.1794 12.8845H13.2048C13.0051 12.8845 12.8378 12.9527 12.7028 13.0891C12.5675 13.2255 12.4998 13.3945 12.4998 13.5962C12.4998 13.7976 12.5675 13.9644 12.7028 14.0966C12.8378 14.2288 13.0051 14.295 13.2048 14.295ZM13.2048 20.705H20.2882C20.3309 20.4536 20.379 20.2119 20.4323 19.98C20.4859 19.7477 20.5487 19.5194 20.6207 19.295H13.2048C13.0051 19.295 12.8378 19.3632 12.7028 19.4995C12.5675 19.6359 12.4998 19.8048 12.4998 20.0062C12.4998 20.2079 12.5675 20.3748 12.7028 20.507C12.8378 20.639 13.0051 20.705 13.2048 20.705ZM13.2048 27.1154H17.4136C17.7539 26.8554 18.1008 26.6161 18.4544 26.3975C18.808 26.1789 19.1804 25.9855 19.5715 25.8175V25.8675C19.5401 25.8005 19.5004 25.7568 19.4523 25.7362C19.4043 25.7154 19.3471 25.705 19.2807 25.705H13.2048C13.0051 25.705 12.8378 25.7732 12.7028 25.9095C12.5675 26.0459 12.4998 26.215 12.4998 26.4166C12.4998 26.6183 12.5675 26.7851 12.7028 26.917C12.8378 27.0493 13.0051 27.1154 13.2048 27.1154Z" fill="#1C1B1F"/>
</g>
</svg>
